<svg width="8" height="12" viewBox="0 0 8 12" fill="none" xmlns="http://www.w3.org/2000/svg">
<path d="M2.84408 6.00254L7.33325 1.51317C7.45686 1.38985 7.52486 1.22498 7.52486 1.04917C7.52486 0.873268 7.45686 0.708488 7.33325 0.584976L6.93988 0.191805C6.81647 0.0680975 6.65149 0 6.47568 0C6.29988 0 6.1351 0.0680975 6.01159 0.191805L0.666515 5.53678C0.542515 5.66068 0.474612 5.82624 0.4751 6.00224C0.474612 6.17902 0.542417 6.34439 0.666515 6.46839L6.00661 11.8082C6.13012 11.9319 6.2949 12 6.47081 12C6.64661 12 6.81139 11.9319 6.935 11.8082L7.32827 11.415C7.58417 11.1591 7.58417 10.7425 7.32827 10.4867L2.84408 6.00254Z" fill="white"/>
</svg>
